<svg xmlns="http://www.w3.org/2000/svg" width="890pt" height="2663pt" viewBox="0 0 889.5 2663"><g class="graph" transform="translate(4 2659)"><path fill="#fff" d="M-4 4v-2663h889.5V4z"/><g class="node"><path fill="#d3d3d3" stroke="#000" d="M636-2655H398v240h238z"/><text x="410" y="-2633.7" font-family="Times,serif" font-size="14">main:</text><text x="410" y="-2610.7" font-family="Times,serif" font-size="14">CPY</text><text x="470" y="-2610.7" font-family="Times,serif" font-size="14">r12,sp</text><text x="409.62" y="-2587.7" font-family="Times,serif" font-size="14">STMDB</text><text x="469.75" y="-2587.7" font-family="Times,serif" font-size="14">sp!,{r4,r11,r12,lr,pc}</text><text x="410" y="-2564.7" font-family="Times,serif" font-size="14">SUB</text><text x="470" y="-2564.7" font-family="Times,serif" font-size="14">r11,r12,#0x4</text><text x="410" y="-2541.7" font-family="Times,serif" font-size="14">SUB</text><text x="470" y="-2541.7" font-family="Times,serif" font-size="14">sp,sp,#0x24</text><text x="410" y="-2518.7" font-family="Times,serif" font-size="14">STR</text><text x="470" y="-2518.7" font-family="Times,serif" font-size="14">r0,[r11,#-0x28]</text><text x="410" y="-2495.7" font-family="Times,serif" font-size="14">STR</text><text x="470" y="-2495.7" font-family="Times,serif" font-size="14">r1,[r11,#-0x2c]</text><text x="410" y="-2472.7" font-family="Times,serif" font-size="14">LDR</text><text x="470" y="-2472.7" font-family="Times,serif" font-size="14">r3,[r11,#-0x28]</text><text x="410" y="-2449.7" font-family="Times,serif" font-size="14">CMP</text><text x="470" y="-2449.7" font-family="Times,serif" font-size="14">r3,#0x1</text><text x="410" y="-2426.7" font-family="Times,serif" font-size="14">BGT</text><text x="470" y="-2426.7" font-family="Times,serif" font-size="14">0x000082c0</text></g><g class="node"><path fill="#d3d3d3" stroke="#000" d="M568.5-2379h-251v125h251z"/><text x="329.5" y="-2357.7" font-family="Times,serif" font-size="14">LAB_000082c0:</text><text x="329.5" y="-2334.7" font-family="Times,serif" font-size="14">MOV</text><text x="446.5" y="-2334.7" font-family="Times,serif" font-size="14">r3,#0x0</text><text x="329.5" y="-2311.7" font-family="Times,serif" font-size="14">STR</text><text x="446.38" y="-2311.7" font-family="Times,serif" font-size="14">r3,[r11,#-0x1c]</text><text x="329.5" y="-2288.7" font-family="Times,serif" font-size="14">MOV</text><text x="446.5" y="-2288.7" font-family="Times,serif" font-size="14">r0,#0x20</text><text x="329.5" y="-2265.7" font-family="Times,serif" font-size="14">BL</text><text x="446.5" y="-2265.7" font-family="Times,serif" font-size="14">0x00008248</text></g><g class="edge"><path fill="none" stroke="green" d="M483.25-2414.57v23.82"/><path fill="green" stroke="green" d="m486.75-2390.75-3.5 10-3.5-10z"/></g><g class="node"><path fill="#d3d3d3" stroke="#000" d="M881.5-2218h-217v102h217z"/><text x="676.25" y="-2196.7" font-family="Times,serif" font-size="14">000082b4:</text><text x="676.5" y="-2173.7" font-family="Times,serif" font-size="14">MVN</text><text x="758.5" y="-2173.7" font-family="Times,serif" font-size="14">r3,#0x0</text><text x="676.5" y="-2150.7" font-family="Times,serif" font-size="14">STR</text><text x="758.12" y="-2150.7" font-family="Times,serif" font-size="14">r3,[r11,#-0x30]</text><text x="676.5" y="-2127.7" font-family="Times,serif" font-size="14">B</text><text x="758.5" y="-2127.7" font-family="Times,serif" font-size="14">0x00008448</text></g><g class="edge"><path fill="none" stroke="red" d="M602.25-2414.5v247.5h50.61"/><path fill="red" stroke="red" d="m652.86-2170.5 10 3.5-10 3.5z"/></g><g class="node"><path fill="#d3d3d3" stroke="#000" d="M510.5-2218h-217v102h217z"/><text x="305.25" y="-2196.7" font-family="Times,serif" font-size="14">000082d0:</text><text x="305.5" y="-2173.7" font-family="Times,serif" font-size="14">CPY</text><text x="387.5" y="-2173.7" font-family="Times,serif" font-size="14">r3,r0</text><text x="305.5" y="-2150.7" font-family="Times,serif" font-size="14">STR</text><text x="387.12" y="-2150.7" font-family="Times,serif" font-size="14">r3,[r11,#-0x20]</text><text x="305.5" y="-2127.7" font-family="Times,serif" font-size="14">B</text><text x="387.5" y="-2127.7" font-family="Times,serif" font-size="14">0x0000832c</text></g><g class="edge"><path fill="none" stroke="red" d="M414-2253.53v23.9"/><path fill="red" stroke="red" d="m417.5-2229.63-3.5 10-3.5-10z"/></g><g class="node"><path fill="#d3d3d3" stroke="#000" d="M850-125H582V0h268z"/><text x="593.75" y="-103.7" font-family="Times,serif" font-size="14">LAB_00008448:</text><text x="594" y="-80.7" font-family="Times,serif" font-size="14">LDR</text><text x="712" y="-80.7" font-family="Times,serif" font-size="14">r3,[r11,#-0x30]</text><text x="594" y="-57.7" font-family="Times,serif" font-size="14">CPY</text><text x="712" y="-57.7" font-family="Times,serif" font-size="14">r0,r3</text><text x="594" y="-34.7" font-family="Times,serif" font-size="14">SUB</text><text x="712" y="-34.7" font-family="Times,serif" font-size="14">sp,r11,#0x10</text><text x="594" y="-11.7" font-family="Times,serif" font-size="14">LDMIA</text><text x="712" y="-11.7" font-family="Times,serif" font-size="14">sp,{r4,r11,sp,pc}</text></g><g class="edge"><path fill="none" stroke="#000" d="M828.75-2115.5v1978.66"/><path stroke="#000" d="m832.25-136.84-3.5 10-3.5-10z"/></g><g class="node"><path fill="#d3d3d3" stroke="#000" d="M469.5-2080h-251v102h251z"/><text x="230.5" y="-2058.7" font-family="Times,serif" font-size="14">LAB_0000832c:</text><text x="230.5" y="-2035.7" font-family="Times,serif" font-size="14">LDR</text><text x="347.38" y="-2035.7" font-family="Times,serif" font-size="14">r3,[r11,#-0x1c]</text><text x="230.5" y="-2012.7" font-family="Times,serif" font-size="14">CMP</text><text x="347.5" y="-2012.7" font-family="Times,serif" font-size="14">r3,#0x8</text><text x="230.5" y="-1989.7" font-family="Times,serif" font-size="14">BNE</text><text x="347.5" y="-1989.7" font-family="Times,serif" font-size="14">0x000082dc</text></g><g class="edge"><path fill="none" stroke="#000" d="M381.5-2115.61v23.67"/><path stroke="#000" d="m385-2091.94-3.5 10-3.5-10z"/></g><g class="node"><path fill="#d3d3d3" stroke="#000" d="M252-1884.5H0v171h252z"/><text x="12" y="-1863.2" font-family="Times,serif" font-size="14">LAB_000082dc:</text><text x="12" y="-1840.2" font-family="Times,serif" font-size="14">LDR</text><text x="129" y="-1840.2" font-family="Times,serif" font-size="14">r3,[r11,#-0x1c]</text><text x="12" y="-1817.2" font-family="Times,serif" font-size="14">MOV</text><text x="129" y="-1817.2" font-family="Times,serif" font-size="14">r2,r3,lsl#0x2</text><text x="12" y="-1794.2" font-family="Times,serif" font-size="14">LDR</text><text x="128.62" y="-1794.2" font-family="Times,serif" font-size="14">r3,[r11,#-0x20]</text><text x="12" y="-1771.2" font-family="Times,serif" font-size="14">ADD</text><text x="129" y="-1771.2" font-family="Times,serif" font-size="14">r4,r3,r2</text><text x="12" y="-1748.2" font-family="Times,serif" font-size="14">MOV</text><text x="129" y="-1748.2" font-family="Times,serif" font-size="14">r0,#0x20</text><text x="12" y="-1725.2" font-family="Times,serif" font-size="14">BL</text><text x="129" y="-1725.2" font-family="Times,serif" font-size="14">0x00008248</text></g><g class="edge"><path fill="none" stroke="green" d="M235.25-1977.67v81.21"/><path fill="green" stroke="green" d="m238.75-1896.46-3.5 10-3.5-10z"/></g><g class="node"><path fill="#d3d3d3" stroke="#000" d="M522.5-1942h-217v286h217z"/><text x="317.25" y="-1920.7" font-family="Times,serif" font-size="14">00008338:</text><text x="317.5" y="-1897.7" font-family="Times,serif" font-size="14">LDR</text><text x="399.5" y="-1897.7" font-family="Times,serif" font-size="14">r3,[r11,#-0x1c]</text><text x="317.5" y="-1874.7" font-family="Times,serif" font-size="14">MOV</text><text x="399.5" y="-1874.7" font-family="Times,serif" font-size="14">r2,r3,lsl#0x2</text><text x="317.5" y="-1851.7" font-family="Times,serif" font-size="14">LDR</text><text x="399.12" y="-1851.7" font-family="Times,serif" font-size="14">r3,[r11,#-0x20]</text><text x="317.5" y="-1828.7" font-family="Times,serif" font-size="14">ADD</text><text x="399.5" y="-1828.7" font-family="Times,serif" font-size="14">r2,r3,r2</text><text x="317.5" y="-1805.7" font-family="Times,serif" font-size="14">MOV</text><text x="399.5" y="-1805.7" font-family="Times,serif" font-size="14">r3,#0x0</text><text x="317.5" y="-1782.7" font-family="Times,serif" font-size="14">STR</text><text x="399.5" y="-1782.7" font-family="Times,serif" font-size="14">r3,[r2,#0x0]</text><text x="317.5" y="-1759.7" font-family="Times,serif" font-size="14">MOV</text><text x="399.5" y="-1759.7" font-family="Times,serif" font-size="14">r3,#0x0</text><text x="317.5" y="-1736.7" font-family="Times,serif" font-size="14">STR</text><text x="399.5" y="-1736.7" font-family="Times,serif" font-size="14">r3,[r11,#-0x1c]</text><text x="317.5" y="-1713.7" font-family="Times,serif" font-size="14">MOV</text><text x="399.5" y="-1713.7" font-family="Times,serif" font-size="14">r3,#0x41</text><text x="317.5" y="-1690.7" font-family="Times,serif" font-size="14">STR</text><text x="399.12" y="-1690.7" font-family="Times,serif" font-size="14">r3,[r11,#-0x18]</text><text x="317.5" y="-1667.7" font-family="Times,serif" font-size="14">B</text><text x="399.5" y="-1667.7" font-family="Times,serif" font-size="14">0x0000839c</text></g><g class="edge"><path fill="none" stroke="red" d="M387.5-1977.67v23.74"/><path fill="red" stroke="red" d="m391-1953.93-3.5 10-3.5-10z"/></g><g class="node"><path fill="#d3d3d3" stroke="#000" d="M241.5-1620h-213v286h213z"/><text x="40.12" y="-1598.7" font-family="Times,serif" font-size="14">000082f4:</text><text x="40.5" y="-1575.7" font-family="Times,serif" font-size="14">CPY</text><text x="118.5" y="-1575.7" font-family="Times,serif" font-size="14">r3,r0</text><text x="40.5" y="-1552.7" font-family="Times,serif" font-size="14">STR</text><text x="118.5" y="-1552.7" font-family="Times,serif" font-size="14">r3,[r4,#0x0]</text><text x="40.5" y="-1529.7" font-family="Times,serif" font-size="14">LDR</text><text x="118.5" y="-1529.7" font-family="Times,serif" font-size="14">r3,[r11,#-0x1c]</text><text x="40.5" y="-1506.7" font-family="Times,serif" font-size="14">MOV</text><text x="118.5" y="-1506.7" font-family="Times,serif" font-size="14">r2,r3,lsl#0x2</text><text x="40.5" y="-1483.7" font-family="Times,serif" font-size="14">LDR</text><text x="118.12" y="-1483.7" font-family="Times,serif" font-size="14">r3,[r11,#-0x20]</text><text x="40.5" y="-1460.7" font-family="Times,serif" font-size="14">ADD</text><text x="118.5" y="-1460.7" font-family="Times,serif" font-size="14">r3,r3,r2</text><text x="40.5" y="-1437.7" font-family="Times,serif" font-size="14">LDR</text><text x="118.5" y="-1437.7" font-family="Times,serif" font-size="14">r3,[r3,#0x0]</text><text x="40.5" y="-1414.7" font-family="Times,serif" font-size="14">CPY</text><text x="118.5" y="-1414.7" font-family="Times,serif" font-size="14">r0,r3</text><text x="40.5" y="-1391.7" font-family="Times,serif" font-size="14">MOV</text><text x="118.5" y="-1391.7" font-family="Times,serif" font-size="14">r1,#0xa</text><text x="40.5" y="-1368.7" font-family="Times,serif" font-size="14">MOV</text><text x="118.5" y="-1368.7" font-family="Times,serif" font-size="14">r2,#0x20</text><text x="40.5" y="-1345.7" font-family="Times,serif" font-size="14">BL</text><text x="118.5" y="-1345.7" font-family="Times,serif" font-size="14">0x00011fe0</text></g><g class="edge"><path fill="none" stroke="red" d="M135-1713.13v81.18"/><path fill="red" stroke="red" d="m138.5-1631.95-3.5 10-3.5-10z"/></g><g class="node"><path fill="#d3d3d3" stroke="#000" d="M266-1171.5H50v102h216z"/><text x="61.75" y="-1150.2" font-family="Times,serif" font-size="14">00008320:</text><text x="62" y="-1127.2" font-family="Times,serif" font-size="14">LDR</text><text x="143.88" y="-1127.2" font-family="Times,serif" font-size="14">r3,[r11,#-0x1c]</text><text x="62" y="-1104.2" font-family="Times,serif" font-size="14">ADD</text><text x="144" y="-1104.2" font-family="Times,serif" font-size="14">r3,r3,#0x1</text><text x="62" y="-1081.2" font-family="Times,serif" font-size="14">STR</text><text x="143.88" y="-1081.2" font-family="Times,serif" font-size="14">r3,[r11,#-0x1c]</text></g><g class="edge"><path fill="none" stroke="red" d="M145.75-1333.54v150.35"/><path fill="red" stroke="red" d="m149.25-1183.19-3.5 10-3.5-10z"/></g><g class="edge"><path fill="none" stroke="red" d="M259-1171.95v-794.09"/><path fill="red" stroke="red" d="m255.5-1966.04 3.5-10 3.5 10z"/></g><g class="node"><path fill="#d3d3d3" stroke="#000" d="M547.5-1528h-251v102h251z"/><text x="308.5" y="-1506.7" font-family="Times,serif" font-size="14">LAB_0000839c:</text><text x="308.5" y="-1483.7" font-family="Times,serif" font-size="14">LDR</text><text x="425.38" y="-1483.7" font-family="Times,serif" font-size="14">r3,[r11,#-0x1c]</text><text x="308.5" y="-1460.7" font-family="Times,serif" font-size="14">CMP</text><text x="425.5" y="-1460.7" font-family="Times,serif" font-size="14">r3,#0x1f</text><text x="308.5" y="-1437.7" font-family="Times,serif" font-size="14">BNE</text><text x="425.5" y="-1437.7" font-family="Times,serif" font-size="14">0x00008364</text></g><g class="edge"><path fill="none" stroke="#000" d="M414-1655.89v116.04"/><path stroke="#000" d="m417.5-1539.85-3.5 10-3.5-10z"/></g><g class="node"><path fill="#d3d3d3" stroke="#000" d="M540.5-1298h-253v355h253z"/><text x="299.25" y="-1276.7" font-family="Times,serif" font-size="14">LAB_00008364:</text><text x="299.5" y="-1253.7" font-family="Times,serif" font-size="14">LDR</text><text x="417.12" y="-1253.7" font-family="Times,serif" font-size="14">r3,[r11,#-0x20]</text><text x="299.5" y="-1230.7" font-family="Times,serif" font-size="14">ADD</text><text x="417.5" y="-1230.7" font-family="Times,serif" font-size="14">r3,r3,#0xc</text><text x="299.5" y="-1207.7" font-family="Times,serif" font-size="14">LDR</text><text x="417.5" y="-1207.7" font-family="Times,serif" font-size="14">r2,[r3,#0x0]</text><text x="299.5" y="-1184.7" font-family="Times,serif" font-size="14">LDR</text><text x="417.5" y="-1184.7" font-family="Times,serif" font-size="14">r3,[r11,#-0x1c]</text><text x="299.5" y="-1161.7" font-family="Times,serif" font-size="14">ADD</text><text x="417.5" y="-1161.7" font-family="Times,serif" font-size="14">r2,r2,r3</text><text x="299.5" y="-1138.7" font-family="Times,serif" font-size="14">LDR</text><text x="417.12" y="-1138.7" font-family="Times,serif" font-size="14">r3,[r11,#-0x18]</text><text x="299.5" y="-1115.7" font-family="Times,serif" font-size="14">AND</text><text x="417.5" y="-1115.7" font-family="Times,serif" font-size="14">r3,r3,#0xff</text><text x="299.5" y="-1092.7" font-family="Times,serif" font-size="14">STRB</text><text x="417.5" y="-1092.7" font-family="Times,serif" font-size="14">r3,[r2,#0x0]</text><text x="299.5" y="-1069.7" font-family="Times,serif" font-size="14">LDR</text><text x="417.12" y="-1069.7" font-family="Times,serif" font-size="14">r3,[r11,#-0x18]</text><text x="299.5" y="-1046.7" font-family="Times,serif" font-size="14">ADD</text><text x="417.5" y="-1046.7" font-family="Times,serif" font-size="14">r3,r3,#0x1</text><text x="299.5" y="-1023.7" font-family="Times,serif" font-size="14">STR</text><text x="417.12" y="-1023.7" font-family="Times,serif" font-size="14">r3,[r11,#-0x18]</text><text x="299.5" y="-1000.7" font-family="Times,serif" font-size="14">LDR</text><text x="417.5" y="-1000.7" font-family="Times,serif" font-size="14">r3,[r11,#-0x1c]</text><text x="299.5" y="-977.7" font-family="Times,serif" font-size="14">ADD</text><text x="417.5" y="-977.7" font-family="Times,serif" font-size="14">r3,r3,#0x1</text><text x="299.5" y="-954.7" font-family="Times,serif" font-size="14">STR</text><text x="417.5" y="-954.7" font-family="Times,serif" font-size="14">r3,[r11,#-0x1c]</text></g><g class="edge"><path fill="none" stroke="green" d="M377.83-1425.54v115.68"/><path fill="green" stroke="green" d="m381.33-1309.86-3.5 10-3.5-10z"/></g><g class="node"><path fill="#d3d3d3" stroke="#000" d="M771-1252H555v263h216z"/><text x="566.62" y="-1230.7" font-family="Times,serif" font-size="14">000083a8:</text><text x="567" y="-1207.7" font-family="Times,serif" font-size="14">LDR</text><text x="647.62" y="-1207.7" font-family="Times,serif" font-size="14">r3,[r11,#-0x20]</text><text x="567" y="-1184.7" font-family="Times,serif" font-size="14">ADD</text><text x="648" y="-1184.7" font-family="Times,serif" font-size="14">r3,r3,#0xc</text><text x="567" y="-1161.7" font-family="Times,serif" font-size="14">LDR</text><text x="648" y="-1161.7" font-family="Times,serif" font-size="14">r2,[r3,#0x0]</text><text x="567" y="-1138.7" font-family="Times,serif" font-size="14">LDR</text><text x="648" y="-1138.7" font-family="Times,serif" font-size="14">r3,[r11,#-0x1c]</text><text x="567" y="-1115.7" font-family="Times,serif" font-size="14">ADD</text><text x="648" y="-1115.7" font-family="Times,serif" font-size="14">r2,r2,r3</text><text x="567" y="-1092.7" font-family="Times,serif" font-size="14">MOV</text><text x="648" y="-1092.7" font-family="Times,serif" font-size="14">r3,#0x0</text><text x="567" y="-1069.7" font-family="Times,serif" font-size="14">STRB</text><text x="648" y="-1069.7" font-family="Times,serif" font-size="14">r3,[r2,#0x0]</text><text x="567" y="-1046.7" font-family="Times,serif" font-size="14">MOV</text><text x="648" y="-1046.7" font-family="Times,serif" font-size="14">r3,#0x0</text><text x="567" y="-1023.7" font-family="Times,serif" font-size="14">STR</text><text x="648" y="-1023.7" font-family="Times,serif" font-size="14">r3,[r11,#-0x1c]</text><text x="567" y="-1000.7" font-family="Times,serif" font-size="14">B</text><text x="648" y="-1000.7" font-family="Times,serif" font-size="14">0x00008420</text></g><g class="edge"><path fill="none" stroke="red" d="M547.84-1477h13.91v213"/><path fill="red" stroke="red" d="m565.25-1264-3.5 10-3.5-10z"/></g><g class="edge"><path fill="none" stroke="red" d="M459.17-1298.49v-115.83"/><path fill="red" stroke="red" d="m455.67-1414.32 3.5-10 3.5 10z"/></g><g class="node"><path fill="#d3d3d3" stroke="#000" d="M751-907H499v217h252z"/><text x="510.75" y="-885.7" font-family="Times,serif" font-size="14">LAB_00008420:</text><text x="511" y="-862.7" font-family="Times,serif" font-size="14">LDR</text><text x="628.88" y="-862.7" font-family="Times,serif" font-size="14">r3,[r11,#-0x2c]</text><text x="511" y="-839.7" font-family="Times,serif" font-size="14">ADD</text><text x="629" y="-839.7" font-family="Times,serif" font-size="14">r3,r3,#0x4</text><text x="511" y="-816.7" font-family="Times,serif" font-size="14">LDR</text><text x="629" y="-816.7" font-family="Times,serif" font-size="14">r2,[r3,#0x0]</text><text x="511" y="-793.7" font-family="Times,serif" font-size="14">LDR</text><text x="628.88" y="-793.7" font-family="Times,serif" font-size="14">r3,[r11,#-0x1c]</text><text x="511" y="-770.7" font-family="Times,serif" font-size="14">ADD</text><text x="629" y="-770.7" font-family="Times,serif" font-size="14">r3,r2,r3</text><text x="511" y="-747.7" font-family="Times,serif" font-size="14">LDRB</text><text x="629" y="-747.7" font-family="Times,serif" font-size="14">r3,[r3,#0x0]</text><text x="511" y="-724.7" font-family="Times,serif" font-size="14">CMP</text><text x="629" y="-724.7" font-family="Times,serif" font-size="14">r3,#0x0</text><text x="511" y="-701.7" font-family="Times,serif" font-size="14">BNE</text><text x="629" y="-701.7" font-family="Times,serif" font-size="14">0x000083d0</text></g><g class="edge"><path fill="none" stroke="#000" d="M653-988.6v69.72"/><path stroke="#000" d="m656.5-918.88-3.5 10-3.5-10z"/></g><g class="node"><path fill="#d3d3d3" stroke="#000" d="M545.5-654h-253v355h253z"/><text x="304.25" y="-632.7" font-family="Times,serif" font-size="14">LAB_000083d0:</text><text x="304.5" y="-609.7" font-family="Times,serif" font-size="14">LDR</text><text x="422.5" y="-609.7" font-family="Times,serif" font-size="14">r3,[r11,#-0x2c]</text><text x="304.5" y="-586.7" font-family="Times,serif" font-size="14">ADD</text><text x="422.5" y="-586.7" font-family="Times,serif" font-size="14">r3,r3,#0x4</text><text x="304.5" y="-563.7" font-family="Times,serif" font-size="14">LDR</text><text x="422.5" y="-563.7" font-family="Times,serif" font-size="14">r2,[r3,#0x0]</text><text x="304.5" y="-540.7" font-family="Times,serif" font-size="14">LDR</text><text x="422.5" y="-540.7" font-family="Times,serif" font-size="14">r3,[r11,#-0x1c]</text><text x="304.5" y="-517.7" font-family="Times,serif" font-size="14">ADD</text><text x="422.5" y="-517.7" font-family="Times,serif" font-size="14">r3,r2,r3</text><text x="304.5" y="-494.7" font-family="Times,serif" font-size="14">LDRB</text><text x="422.5" y="-494.7" font-family="Times,serif" font-size="14">r1,[r3,#0x0]</text><text x="304.5" y="-471.7" font-family="Times,serif" font-size="14">LDR</text><text x="422.12" y="-471.7" font-family="Times,serif" font-size="14">r3,[r11,#-0x20]</text><text x="304.5" y="-448.7" font-family="Times,serif" font-size="14">ADD</text><text x="422.5" y="-448.7" font-family="Times,serif" font-size="14">r3,r3,#0xc</text><text x="304.5" y="-425.7" font-family="Times,serif" font-size="14">LDR</text><text x="422.5" y="-425.7" font-family="Times,serif" font-size="14">r2,[r3,#0x0]</text><text x="304.5" y="-402.7" font-family="Times,serif" font-size="14">LDR</text><text x="422.5" y="-402.7" font-family="Times,serif" font-size="14">r3,[r11,#-0x1c]</text><text x="304.5" y="-379.7" font-family="Times,serif" font-size="14">ADD</text><text x="422.5" y="-379.7" font-family="Times,serif" font-size="14">r3,r2,r3</text><text x="304.5" y="-356.7" font-family="Times,serif" font-size="14">LDRB</text><text x="422.5" y="-356.7" font-family="Times,serif" font-size="14">r3,[r3,#0x0]</text><text x="304.5" y="-333.7" font-family="Times,serif" font-size="14">CMP</text><text x="422.5" y="-333.7" font-family="Times,serif" font-size="14">r1,r3</text><text x="304.5" y="-310.7" font-family="Times,serif" font-size="14">BEQ</text><text x="422.5" y="-310.7" font-family="Times,serif" font-size="14">0x00008414</text></g><g class="edge"><path fill="none" stroke="green" d="M522.25-689.93v23.92"/><path fill="green" stroke="green" d="m525.75-666.01-3.5 10-3.5-10z"/></g><g class="node"><path fill="#d3d3d3" stroke="#000" d="M807.5-516h-217v79h217z"/><text x="602.25" y="-494.7" font-family="Times,serif" font-size="14">00008440:</text><text x="602.5" y="-471.7" font-family="Times,serif" font-size="14">LDR</text><text x="684.5" y="-471.7" font-family="Times,serif" font-size="14">r3,[0x8458]</text><text x="602.5" y="-448.7" font-family="Times,serif" font-size="14">STR</text><text x="684.12" y="-448.7" font-family="Times,serif" font-size="14">r3,[r11,#-0x30]</text></g><g class="edge"><path fill="none" stroke="red" d="M670.75-689.93v162.24"/><path fill="red" stroke="red" d="m674.25-527.69-3.5 10-3.5-10z"/></g><g class="node"><path fill="#d3d3d3" stroke="#000" d="M694-263H442v102h252z"/><text x="453.75" y="-241.7" font-family="Times,serif" font-size="14">LAB_00008414:</text><text x="454" y="-218.7" font-family="Times,serif" font-size="14">LDR</text><text x="571.88" y="-218.7" font-family="Times,serif" font-size="14">r3,[r11,#-0x1c]</text><text x="454" y="-195.7" font-family="Times,serif" font-size="14">ADD</text><text x="572" y="-195.7" font-family="Times,serif" font-size="14">r3,r3,#0x1</text><text x="454" y="-172.7" font-family="Times,serif" font-size="14">STR</text><text x="571.88" y="-172.7" font-family="Times,serif" font-size="14">r3,[r11,#-0x1c]</text></g><g class="edge"><path fill="none" stroke="green" d="M493.75-298.61v23.66"/><path fill="green" stroke="green" d="m497.25-274.95-3.5 10-3.5-10z"/></g><g class="node"><path fill="#d3d3d3" stroke="#000" d="M427.5-263h-217v102h217z"/><text x="222.25" y="-241.7" font-family="Times,serif" font-size="14">00008408:</text><text x="222.5" y="-218.7" font-family="Times,serif" font-size="14">MVN</text><text x="304.5" y="-218.7" font-family="Times,serif" font-size="14">r3,#0x0</text><text x="222.5" y="-195.7" font-family="Times,serif" font-size="14">STR</text><text x="304.12" y="-195.7" font-family="Times,serif" font-size="14">r3,[r11,#-0x30]</text><text x="222.5" y="-172.7" font-family="Times,serif" font-size="14">B</text><text x="304.5" y="-172.7" font-family="Times,serif" font-size="14">0x00008448</text></g><g class="edge"><path fill="none" stroke="red" d="M360-298.61v23.66"/><path fill="red" stroke="red" d="m363.5-274.95-3.5 10-3.5-10z"/></g><g class="edge"><path fill="none" stroke="red" d="M568-263.28v-414.93"/><path fill="red" stroke="red" d="m564.5-678.21 3.5-10 3.5 10z"/></g><g class="edge"><path fill="none" stroke="#000" d="M319-160.8V-62h251.08"/><path stroke="#000" d="m570.08-65.5 10 3.5-10 3.5z"/></g><g class="edge"><path fill="none" stroke="red" d="M750.75-436.8v300.15"/><path fill="red" stroke="red" d="m754.25-136.65-3.5 10-3.5-10z"/></g></g></svg>