<?xml version="1.0" encoding="UTF-8" standalone="no"?>
<!DOCTYPE svg PUBLIC "-//W3C//DTD SVG 1.1//EN"
 "http://www.w3.org/Graphics/SVG/1.1/DTD/svg11.dtd">
<!-- Generated by graphviz version 9.0.0 (20230911.1827)
 -->
<!-- Title: G Pages: 1 -->
<svg width="425pt" height="1007pt"
 viewBox="0.00 0.00 424.50 1007.00" xmlns="http://www.w3.org/2000/svg" xmlns:xlink="http://www.w3.org/1999/xlink">
<g id="graph0" class="graph" transform="scale(1 1) rotate(0) translate(4 1003)">
<title>G</title>
<polygon fill="white" stroke="none" points="-4,4 -4,-1003 420.5,-1003 420.5,4 -4,4"/>
<!-- n0 -->
<g id="node1" class="node">
<title>n0</title>
<polygon fill="lightgray" stroke="black" points="256,-999 78,-999 78,-621 256,-621 256,-999"/>
<text text-anchor="start" x="90" y="-977.7" font-family="Times,serif" font-size="14.00">MOV</text>
<text text-anchor="start" x="134" y="-977.7" font-family="Times,serif" font-size="14.00">eax,0x4</text>
<text text-anchor="start" x="90" y="-954.7" font-family="Times,serif" font-size="14.00">MOV</text>
<text text-anchor="start" x="134" y="-954.7" font-family="Times,serif" font-size="14.00">ebx,0x1</text>
<text text-anchor="start" x="90" y="-931.7" font-family="Times,serif" font-size="14.00">MOV</text>
<text text-anchor="start" x="134" y="-931.7" font-family="Times,serif" font-size="14.00">ecx,0x80491a1</text>
<text text-anchor="start" x="90" y="-908.7" font-family="Times,serif" font-size="14.00">MOV</text>
<text text-anchor="start" x="134" y="-908.7" font-family="Times,serif" font-size="14.00">edx,0x26</text>
<text text-anchor="start" x="90" y="-885.7" font-family="Times,serif" font-size="14.00">INT</text>
<text text-anchor="start" x="134" y="-885.7" font-family="Times,serif" font-size="14.00">0x80</text>
<text text-anchor="start" x="90" y="-862.7" font-family="Times,serif" font-size="14.00">MOV</text>
<text text-anchor="start" x="134" y="-862.7" font-family="Times,serif" font-size="14.00">eax,0x3</text>
<text text-anchor="start" x="90" y="-839.7" font-family="Times,serif" font-size="14.00">XOR</text>
<text text-anchor="start" x="134" y="-839.7" font-family="Times,serif" font-size="14.00">ebx,ebx</text>
<text text-anchor="start" x="90" y="-816.7" font-family="Times,serif" font-size="14.00">MOV</text>
<text text-anchor="start" x="134" y="-816.7" font-family="Times,serif" font-size="14.00">ecx,0x8049188</text>
<text text-anchor="start" x="90" y="-793.7" font-family="Times,serif" font-size="14.00">MOV</text>
<text text-anchor="start" x="134" y="-793.7" font-family="Times,serif" font-size="14.00">edx,0x33</text>
<text text-anchor="start" x="90" y="-770.7" font-family="Times,serif" font-size="14.00">INT</text>
<text text-anchor="start" x="134" y="-770.7" font-family="Times,serif" font-size="14.00">0x80</text>
<text text-anchor="start" x="90" y="-747.7" font-family="Times,serif" font-size="14.00">XOR</text>
<text text-anchor="start" x="134" y="-747.7" font-family="Times,serif" font-size="14.00">ecx,ecx</text>
<text text-anchor="start" x="90" y="-724.7" font-family="Times,serif" font-size="14.00">MOV</text>
<text text-anchor="start" x="134" y="-724.7" font-family="Times,serif" font-size="14.00">eax,0x8048080</text>
<text text-anchor="start" x="90" y="-701.7" font-family="Times,serif" font-size="14.00">MOV</text>
<text text-anchor="start" x="133.88" y="-701.7" font-family="Times,serif" font-size="14.00">ebx,0x8048123</text>
<text text-anchor="start" x="89.88" y="-678.7" font-family="Times,serif" font-size="14.00">CALL</text>
<text text-anchor="start" x="134" y="-678.7" font-family="Times,serif" font-size="14.00">0x8048115</text>
<text text-anchor="start" x="90" y="-655.7" font-family="Times,serif" font-size="14.00">MOV</text>
<text text-anchor="start" x="134" y="-655.7" font-family="Times,serif" font-size="14.00">edx,ecx</text>
<text text-anchor="start" x="90" y="-632.7" font-family="Times,serif" font-size="14.00">MOV</text>
<text text-anchor="start" x="134" y="-632.7" font-family="Times,serif" font-size="14.00">ecx,0x19</text>
</g>
<!-- n1 -->
<g id="node2" class="node">
<title>n1</title>
<polygon fill="lightgray" stroke="black" points="334,-585 0,-585 0,-391 334,-391 334,-585"/>
<text text-anchor="start" x="11.88" y="-563.7" font-family="Times,serif" font-size="14.00">MOV</text>
<text text-anchor="start" x="53" y="-563.7" font-family="Times,serif" font-size="14.00">eax,0x8049155</text>
<text text-anchor="start" x="11.88" y="-540.7" font-family="Times,serif" font-size="14.00">MOV</text>
<text text-anchor="start" x="52.88" y="-540.7" font-family="Times,serif" font-size="14.00">ebx,0x8049188</text>
<text text-anchor="start" x="12" y="-517.7" font-family="Times,serif" font-size="14.00">ROR</text>
<text text-anchor="start" x="53" y="-517.7" font-family="Times,serif" font-size="14.00">edx,1</text>
<text text-anchor="start" x="11.88" y="-494.7" font-family="Times,serif" font-size="14.00">MOV</text>
<text text-anchor="start" x="53" y="-494.7" font-family="Times,serif" font-size="14.00">al,BYTE</text>
<text text-anchor="start" x="168.88" y="-494.7" font-family="Times,serif" font-size="14.00">PTR</text>
<text text-anchor="start" x="204" y="-494.7" font-family="Times,serif" font-size="14.00">[eax+ecx*1&#45;0x1]</text>
<text text-anchor="start" x="11.88" y="-471.7" font-family="Times,serif" font-size="14.00">MOV</text>
<text text-anchor="start" x="53" y="-471.7" font-family="Times,serif" font-size="14.00">bl,BYTE</text>
<text text-anchor="start" x="168.88" y="-471.7" font-family="Times,serif" font-size="14.00">PTR</text>
<text text-anchor="start" x="203.75" y="-471.7" font-family="Times,serif" font-size="14.00">[ebx+ecx*1&#45;0x1]</text>
<text text-anchor="start" x="12" y="-448.7" font-family="Times,serif" font-size="14.00">XOR</text>
<text text-anchor="start" x="53" y="-448.7" font-family="Times,serif" font-size="14.00">al,bl</text>
<text text-anchor="start" x="12" y="-425.7" font-family="Times,serif" font-size="14.00">XOR</text>
<text text-anchor="start" x="53" y="-425.7" font-family="Times,serif" font-size="14.00">al,dl</text>
<text text-anchor="start" x="12" y="-402.7" font-family="Times,serif" font-size="14.00">JNE</text>
<text text-anchor="start" x="53" y="-402.7" font-family="Times,serif" font-size="14.00">0x80480f6</text>
</g>
<!-- n0&#45;&gt;n1 -->
<g id="edge6" class="edge">
<title>n0&#45;&gt;n1</title>
<path fill="none" stroke="black" d="M167,-620.83C167,-620.83 167,-596.75 167,-596.75"/>
<polygon fill="black" stroke="black" points="170.5,-596.75 167,-586.75 163.5,-596.75 170.5,-596.75"/>
</g>
<!-- n2 -->
<g id="node3" class="node">
<title>n2</title>
<polygon fill="lightgray" stroke="black" points="237,-355 97,-355 97,-299 237,-299 237,-355"/>
<text text-anchor="start" x="108.88" y="-333.7" font-family="Times,serif" font-size="14.00">DEC</text>
<text text-anchor="start" x="147" y="-333.7" font-family="Times,serif" font-size="14.00">ecx</text>
<text text-anchor="start" x="109" y="-310.7" font-family="Times,serif" font-size="14.00">JNE</text>
<text text-anchor="start" x="146.62" y="-310.7" font-family="Times,serif" font-size="14.00">0x80480c1</text>
</g>
<!-- n1&#45;&gt;n2 -->
<g id="edge5" class="edge">
<title>n1&#45;&gt;n2</title>
<path fill="none" stroke="red" d="M143.67,-390.63C143.67,-390.63 143.67,-366.79 143.67,-366.79"/>
<polygon fill="red" stroke="red" points="147.17,-366.79 143.67,-356.79 140.17,-366.79 147.17,-366.79"/>
</g>
<!-- n4 -->
<g id="node5" class="node">
<title>n4</title>
<polygon fill="lightgray" stroke="black" points="416.5,-251.5 243.5,-251.5 243.5,-126.5 416.5,-126.5 416.5,-251.5"/>
<text text-anchor="start" x="255.38" y="-230.2" font-family="Times,serif" font-size="14.00">MOV</text>
<text text-anchor="start" x="296.5" y="-230.2" font-family="Times,serif" font-size="14.00">eax,0x4</text>
<text text-anchor="start" x="255.38" y="-207.2" font-family="Times,serif" font-size="14.00">MOV</text>
<text text-anchor="start" x="296.5" y="-207.2" font-family="Times,serif" font-size="14.00">ebx,0x1</text>
<text text-anchor="start" x="255.38" y="-184.2" font-family="Times,serif" font-size="14.00">MOV</text>
<text text-anchor="start" x="296.5" y="-184.2" font-family="Times,serif" font-size="14.00">ecx,0x804914a</text>
<text text-anchor="start" x="255.38" y="-161.2" font-family="Times,serif" font-size="14.00">MOV</text>
<text text-anchor="start" x="296.5" y="-161.2" font-family="Times,serif" font-size="14.00">edx,0xb</text>
<text text-anchor="start" x="255.5" y="-138.2" font-family="Times,serif" font-size="14.00">INT</text>
<text text-anchor="start" x="296.5" y="-138.2" font-family="Times,serif" font-size="14.00">0x80</text>
</g>
<!-- n1&#45;&gt;n4 -->
<g id="edge2" class="edge">
<title>n1&#45;&gt;n4</title>
<path fill="none" stroke="green" d="M288.75,-390.51C288.75,-390.51 288.75,-263.07 288.75,-263.07"/>
<polygon fill="green" stroke="green" points="292.25,-263.07 288.75,-253.07 285.25,-263.07 292.25,-263.07"/>
</g>
<!-- n2&#45;&gt;n1 -->
<g id="edge1" class="edge">
<title>n2&#45;&gt;n1</title>
<path fill="none" stroke="green" d="M190.33,-355.41C190.33,-355.41 190.33,-379.01 190.33,-379.01"/>
<polygon fill="green" stroke="green" points="186.83,-379.01 190.33,-389.01 193.83,-379.01 186.83,-379.01"/>
</g>
<!-- n3 -->
<g id="node4" class="node">
<title>n3</title>
<polygon fill="lightgray" stroke="black" points="229.5,-263 56.5,-263 56.5,-115 229.5,-115 229.5,-263"/>
<text text-anchor="start" x="68.38" y="-241.7" font-family="Times,serif" font-size="14.00">MOV</text>
<text text-anchor="start" x="109.5" y="-241.7" font-family="Times,serif" font-size="14.00">eax,0x4</text>
<text text-anchor="start" x="68.38" y="-218.7" font-family="Times,serif" font-size="14.00">MOV</text>
<text text-anchor="start" x="109.5" y="-218.7" font-family="Times,serif" font-size="14.00">ebx,0x1</text>
<text text-anchor="start" x="68.38" y="-195.7" font-family="Times,serif" font-size="14.00">MOV</text>
<text text-anchor="start" x="109.12" y="-195.7" font-family="Times,serif" font-size="14.00">ecx,0x8049124</text>
<text text-anchor="start" x="68.38" y="-172.7" font-family="Times,serif" font-size="14.00">MOV</text>
<text text-anchor="start" x="109.5" y="-172.7" font-family="Times,serif" font-size="14.00">edx,0x26</text>
<text text-anchor="start" x="68.5" y="-149.7" font-family="Times,serif" font-size="14.00">INT</text>
<text text-anchor="start" x="109.5" y="-149.7" font-family="Times,serif" font-size="14.00">0x80</text>
<text text-anchor="start" x="68.5" y="-126.7" font-family="Times,serif" font-size="14.00">JMP</text>
<text text-anchor="start" x="109.5" y="-126.7" font-family="Times,serif" font-size="14.00">0x804810c</text>
</g>
<!-- n2&#45;&gt;n3 -->
<g id="edge3" class="edge">
<title>n2&#45;&gt;n3</title>
<path fill="none" stroke="red" d="M163.25,-298.74C163.25,-298.74 163.25,-274.93 163.25,-274.93"/>
<polygon fill="red" stroke="red" points="166.75,-274.93 163.25,-264.93 159.75,-274.93 166.75,-274.93"/>
</g>
<!-- n5 -->
<g id="node6" class="node">
<title>n5</title>
<polygon fill="lightgray" stroke="black" points="296,-79 176,-79 176,0 296,0 296,-79"/>
<text text-anchor="start" x="187.88" y="-57.7" font-family="Times,serif" font-size="14.00">MOV</text>
<text text-anchor="start" x="228.75" y="-57.7" font-family="Times,serif" font-size="14.00">eax,0x1</text>
<text text-anchor="start" x="188" y="-34.7" font-family="Times,serif" font-size="14.00">XOR</text>
<text text-anchor="start" x="228.75" y="-34.7" font-family="Times,serif" font-size="14.00">ebx,ebx</text>
<text text-anchor="start" x="188" y="-11.7" font-family="Times,serif" font-size="14.00">INT</text>
<text text-anchor="start" x="229" y="-11.7" font-family="Times,serif" font-size="14.00">0x80</text>
</g>
<!-- n3&#45;&gt;n5 -->
<g id="edge7" class="edge">
<title>n3&#45;&gt;n5</title>
<path fill="none" stroke="black" d="M202.75,-114.69C202.75,-114.69 202.75,-90.95 202.75,-90.95"/>
<polygon fill="black" stroke="black" points="206.25,-90.95 202.75,-80.95 199.25,-90.95 206.25,-90.95"/>
</g>
<!-- n4&#45;&gt;n5 -->
<g id="edge4" class="edge">
<title>n4&#45;&gt;n5</title>
<path fill="none" stroke="black" d="M269.75,-126.03C269.75,-126.03 269.75,-90.9 269.75,-90.9"/>
<polygon fill="black" stroke="black" points="273.25,-90.9 269.75,-80.9 266.25,-90.9 273.25,-90.9"/>
</g>
</g>
</svg>
