<?xml version="1.0" encoding="UTF-8" standalone="no"?>
<!DOCTYPE svg PUBLIC "-//W3C//DTD SVG 1.1//EN"
 "http://www.w3.org/Graphics/SVG/1.1/DTD/svg11.dtd">
<!-- Generated by graphviz version 9.0.0 (20230911.1827)
 -->
<!-- Title: G Pages: 1 -->
<svg width="244pt" height="297pt"
 viewBox="0.00 0.00 244.00 297.00" xmlns="http://www.w3.org/2000/svg" xmlns:xlink="http://www.w3.org/1999/xlink">
<g id="graph0" class="graph" transform="scale(1 1) rotate(0) translate(4 293)">
<title>G</title>
<polygon fill="white" stroke="none" points="-4,4 -4,-293 240,-293 240,4 -4,4"/>
<!-- n0 -->
<g id="node1" class="node">
<title>n0</title>
<polygon fill="lightgray" stroke="black" points="167,-289 51,-289 51,-233 167,-233 167,-289"/>
<text text-anchor="start" x="62.88" y="-267.7" font-family="Times,serif" font-size="14.00">SUB</text>
<text text-anchor="start" x="100.62" y="-267.7" font-family="Times,serif" font-size="14.00">ebx,eax</text>
<text text-anchor="start" x="63" y="-244.7" font-family="Times,serif" font-size="14.00">XOR</text>
<text text-anchor="start" x="101" y="-244.7" font-family="Times,serif" font-size="14.00">ecx,ecx</text>
</g>
<!-- n1 -->
<g id="node2" class="node">
<title>n1</title>
<polygon fill="lightgray" stroke="black" points="218,-197 0,-197 0,-72 218,-72 218,-197"/>
<text text-anchor="start" x="11.88" y="-175.7" font-family="Times,serif" font-size="14.00">ADD</text>
<text text-anchor="start" x="50" y="-175.7" font-family="Times,serif" font-size="14.00">cl,BYTE</text>
<text text-anchor="start" x="135.88" y="-175.7" font-family="Times,serif" font-size="14.00">PTR</text>
<text text-anchor="start" x="170.88" y="-175.7" font-family="Times,serif" font-size="14.00">[eax]</text>
<text text-anchor="start" x="12" y="-152.7" font-family="Times,serif" font-size="14.00">ROL</text>
<text text-anchor="start" x="50" y="-152.7" font-family="Times,serif" font-size="14.00">ecx,0x3</text>
<text text-anchor="start" x="12" y="-129.7" font-family="Times,serif" font-size="14.00">INC</text>
<text text-anchor="start" x="50" y="-129.7" font-family="Times,serif" font-size="14.00">eax</text>
<text text-anchor="start" x="11.88" y="-106.7" font-family="Times,serif" font-size="14.00">DEC</text>
<text text-anchor="start" x="50" y="-106.7" font-family="Times,serif" font-size="14.00">ebx</text>
<text text-anchor="start" x="12" y="-83.7" font-family="Times,serif" font-size="14.00">JNE</text>
<text text-anchor="start" x="49.88" y="-83.7" font-family="Times,serif" font-size="14.00">0x8048119</text>
</g>
<!-- n0&#45;&gt;n1 -->
<g id="edge2" class="edge">
<title>n0&#45;&gt;n1</title>
<path fill="none" stroke="black" d="M109,-232.61C109,-232.61 109,-208.95 109,-208.95"/>
<polygon fill="black" stroke="black" points="112.5,-208.95 109,-198.95 105.5,-208.95 112.5,-208.95"/>
</g>
<!-- n1&#45;&gt;n1 -->
<g id="edge3" class="edge">
<title>n1&#45;&gt;n1</title>
<path fill="none" stroke="green" d="M192.5,-197.13C192.5,-207.53 192.5,-215 192.5,-215 192.5,-215 236,-215 236,-215 236,-215 236,-54 236,-54 236,-54 177,-54 177,-54 177,-54 177,-60.35 177,-60.35"/>
<polygon fill="green" stroke="green" points="173.5,-60.35 177,-70.35 180.5,-60.35 173.5,-60.35"/>
</g>
<!-- n2 -->
<g id="node3" class="node">
<title>n2</title>
<polygon fill="lightgray" stroke="black" points="136,-36 82,-36 82,0 136,0 136,-36"/>
<text text-anchor="start" x="94" y="-13.32" font-family="Times,serif" font-size="14.00">RET</text>
</g>
<!-- n1&#45;&gt;n2 -->
<g id="edge1" class="edge">
<title>n1&#45;&gt;n2</title>
<path fill="none" stroke="red" d="M109,-71.82C109,-71.82 109,-48 109,-48"/>
<polygon fill="red" stroke="red" points="112.5,-48 109,-38 105.5,-48 112.5,-48"/>
</g>
</g>
</svg>
