<?xml version="1.0" encoding="UTF-8" standalone="no"?>
<!DOCTYPE svg PUBLIC "-//W3C//DTD SVG 1.1//EN"
 "http://www.w3.org/Graphics/SVG/1.1/DTD/svg11.dtd">
<!-- Generated by graphviz version 9.0.0 (20230911.1827)
 -->
<!-- Title: G Pages: 1 -->
<svg width="458pt" height="1076pt"
 viewBox="0.00 0.00 458.00 1076.00" xmlns="http://www.w3.org/2000/svg" xmlns:xlink="http://www.w3.org/1999/xlink">
<g id="graph0" class="graph" transform="scale(1 1) rotate(0) translate(4 1072)">
<title>G</title>
<polygon fill="white" stroke="none" points="-4,4 -4,-1072 454,-1072 454,4 -4,4"/>
<!-- n0 -->
<g id="node1" class="node">
<title>n0</title>
<polygon fill="lightgray" stroke="black" points="308,-1068 86,-1068 86,-644 308,-644 308,-1068"/>
<text text-anchor="start" x="98" y="-1046.7" font-family="Times,serif" font-size="14.00">PUSH</text>
<text text-anchor="start" x="170" y="-1046.7" font-family="Times,serif" font-size="14.00">rbp</text>
<text text-anchor="start" x="98" y="-1023.7" font-family="Times,serif" font-size="14.00">MOV</text>
<text text-anchor="start" x="170" y="-1023.7" font-family="Times,serif" font-size="14.00">rbp,rsp</text>
<text text-anchor="start" x="98" y="-1000.7" font-family="Times,serif" font-size="14.00">MOV</text>
<text text-anchor="start" x="170" y="-1000.7" font-family="Times,serif" font-size="14.00">eax,0x1</text>
<text text-anchor="start" x="98" y="-977.7" font-family="Times,serif" font-size="14.00">MOV</text>
<text text-anchor="start" x="170" y="-977.7" font-family="Times,serif" font-size="14.00">edi,0x1</text>
<text text-anchor="start" x="98" y="-954.7" font-family="Times,serif" font-size="14.00">MOVABS</text>
<text text-anchor="start" x="170" y="-954.7" font-family="Times,serif" font-size="14.00">rsi,0x4000b0</text>
<text text-anchor="start" x="98" y="-931.7" font-family="Times,serif" font-size="14.00">MOV</text>
<text text-anchor="start" x="170" y="-931.7" font-family="Times,serif" font-size="14.00">edx,0x32</text>
<text text-anchor="start" x="97.62" y="-908.7" font-family="Times,serif" font-size="14.00">SYSCALL</text>
<text text-anchor="start" x="98" y="-885.7" font-family="Times,serif" font-size="14.00">MOV</text>
<text text-anchor="start" x="170" y="-885.7" font-family="Times,serif" font-size="14.00">eax,0x0</text>
<text text-anchor="start" x="98" y="-862.7" font-family="Times,serif" font-size="14.00">MOV</text>
<text text-anchor="start" x="170" y="-862.7" font-family="Times,serif" font-size="14.00">edi,0x0</text>
<text text-anchor="start" x="98" y="-839.7" font-family="Times,serif" font-size="14.00">MOVABS</text>
<text text-anchor="start" x="170" y="-839.7" font-family="Times,serif" font-size="14.00">rsi,0x600260</text>
<text text-anchor="start" x="98" y="-816.7" font-family="Times,serif" font-size="14.00">MOV</text>
<text text-anchor="start" x="170" y="-816.7" font-family="Times,serif" font-size="14.00">edx,0x20</text>
<text text-anchor="start" x="97.62" y="-793.7" font-family="Times,serif" font-size="14.00">SYSCALL</text>
<text text-anchor="start" x="98" y="-770.7" font-family="Times,serif" font-size="14.00">MOV</text>
<text text-anchor="start" x="170" y="-770.7" font-family="Times,serif" font-size="14.00">eax,0x2</text>
<text text-anchor="start" x="98" y="-747.7" font-family="Times,serif" font-size="14.00">MOVABS</text>
<text text-anchor="start" x="170" y="-747.7" font-family="Times,serif" font-size="14.00">rdi,0x40012e</text>
<text text-anchor="start" x="98" y="-724.7" font-family="Times,serif" font-size="14.00">MOV</text>
<text text-anchor="start" x="170" y="-724.7" font-family="Times,serif" font-size="14.00">esi,0x0</text>
<text text-anchor="start" x="97.62" y="-701.7" font-family="Times,serif" font-size="14.00">SYSCALL</text>
<text text-anchor="start" x="98" y="-678.7" font-family="Times,serif" font-size="14.00">CMP</text>
<text text-anchor="start" x="169.62" y="-678.7" font-family="Times,serif" font-size="14.00">rax,0xfffffffffffffffe</text>
<text text-anchor="start" x="98" y="-655.7" font-family="Times,serif" font-size="14.00">JE</text>
<text text-anchor="start" x="170" y="-655.7" font-family="Times,serif" font-size="14.00">0x400215</text>
</g>
<!-- n1 -->
<g id="node2" class="node">
<title>n1</title>
<polygon fill="lightgray" stroke="black" points="396,-608 204,-608 204,-345 396,-345 396,-608"/>
<text text-anchor="start" x="216" y="-586.7" font-family="Times,serif" font-size="14.00">PUSH</text>
<text text-anchor="start" x="288" y="-586.7" font-family="Times,serif" font-size="14.00">rax</text>
<text text-anchor="start" x="216" y="-563.7" font-family="Times,serif" font-size="14.00">MOV</text>
<text text-anchor="start" x="288" y="-563.7" font-family="Times,serif" font-size="14.00">rdi,rax</text>
<text text-anchor="start" x="216" y="-540.7" font-family="Times,serif" font-size="14.00">MOV</text>
<text text-anchor="start" x="288" y="-540.7" font-family="Times,serif" font-size="14.00">eax,0x0</text>
<text text-anchor="start" x="216" y="-517.7" font-family="Times,serif" font-size="14.00">MOVABS</text>
<text text-anchor="start" x="288" y="-517.7" font-family="Times,serif" font-size="14.00">rsi,0x600280</text>
<text text-anchor="start" x="216" y="-494.7" font-family="Times,serif" font-size="14.00">MOV</text>
<text text-anchor="start" x="288" y="-494.7" font-family="Times,serif" font-size="14.00">edx,0x20</text>
<text text-anchor="start" x="215.62" y="-471.7" font-family="Times,serif" font-size="14.00">SYSCALL</text>
<text text-anchor="start" x="216" y="-448.7" font-family="Times,serif" font-size="14.00">MOVABS</text>
<text text-anchor="start" x="288" y="-448.7" font-family="Times,serif" font-size="14.00">rdi,0x600260</text>
<text text-anchor="start" x="216" y="-425.7" font-family="Times,serif" font-size="14.00">MOVABS</text>
<text text-anchor="start" x="288" y="-425.7" font-family="Times,serif" font-size="14.00">rsi,0x600280</text>
<text text-anchor="start" x="216" y="-402.7" font-family="Times,serif" font-size="14.00">CALL</text>
<text text-anchor="start" x="288" y="-402.7" font-family="Times,serif" font-size="14.00">0x400146</text>
<text text-anchor="start" x="216" y="-379.7" font-family="Times,serif" font-size="14.00">CMP</text>
<text text-anchor="start" x="288" y="-379.7" font-family="Times,serif" font-size="14.00">rax,0x0</text>
<text text-anchor="start" x="216" y="-356.7" font-family="Times,serif" font-size="14.00">JE</text>
<text text-anchor="start" x="288" y="-356.7" font-family="Times,serif" font-size="14.00">0x400232</text>
</g>
<!-- n0&#45;&gt;n1 -->
<g id="edge5" class="edge">
<title>n0&#45;&gt;n1</title>
<path fill="none" stroke="red" d="M256,-643.51C256,-643.51 256,-620 256,-620"/>
<polygon fill="red" stroke="red" points="259.5,-620 256,-610 252.5,-620 259.5,-620"/>
</g>
<!-- n2 -->
<g id="node3" class="node">
<title>n2</title>
<polygon fill="lightgray" stroke="black" points="190,-309 0,-309 0,-161 190,-161 190,-309"/>
<text text-anchor="start" x="12" y="-287.7" font-family="Times,serif" font-size="14.00">MOV</text>
<text text-anchor="start" x="84" y="-287.7" font-family="Times,serif" font-size="14.00">eax,0x1</text>
<text text-anchor="start" x="12" y="-264.7" font-family="Times,serif" font-size="14.00">MOV</text>
<text text-anchor="start" x="84" y="-264.7" font-family="Times,serif" font-size="14.00">edi,0x1</text>
<text text-anchor="start" x="12" y="-241.7" font-family="Times,serif" font-size="14.00">MOVABS</text>
<text text-anchor="start" x="83.75" y="-241.7" font-family="Times,serif" font-size="14.00">rsi,0x40011d</text>
<text text-anchor="start" x="12" y="-218.7" font-family="Times,serif" font-size="14.00">MOV</text>
<text text-anchor="start" x="84" y="-218.7" font-family="Times,serif" font-size="14.00">edx,0x11</text>
<text text-anchor="start" x="11.62" y="-195.7" font-family="Times,serif" font-size="14.00">SYSCALL</text>
<text text-anchor="start" x="12" y="-172.7" font-family="Times,serif" font-size="14.00">JMP</text>
<text text-anchor="start" x="84" y="-172.7" font-family="Times,serif" font-size="14.00">0x40024d</text>
</g>
<!-- n0&#45;&gt;n2 -->
<g id="edge3" class="edge">
<title>n0&#45;&gt;n2</title>
<path fill="none" stroke="green" d="M138,-643.59C138,-643.59 138,-320.76 138,-320.76"/>
<polygon fill="green" stroke="green" points="141.5,-320.76 138,-310.76 134.5,-320.76 141.5,-320.76"/>
</g>
<!-- n1&#45;&gt;n2 -->
<g id="edge6" class="edge">
<title>n1&#45;&gt;n2</title>
<path fill="none" stroke="red" d="M233,-344.56C233,-320.58 233,-303 233,-303 233,-303 201.98,-303 201.98,-303"/>
<polygon fill="red" stroke="red" points="201.98,-299.5 191.98,-303 201.98,-306.5 201.98,-299.5"/>
</g>
<!-- n3 -->
<g id="node4" class="node">
<title>n3</title>
<polygon fill="lightgray" stroke="black" points="450,-297.5 262,-297.5 262,-172.5 450,-172.5 450,-297.5"/>
<text text-anchor="start" x="274" y="-276.2" font-family="Times,serif" font-size="14.00">MOV</text>
<text text-anchor="start" x="346" y="-276.2" font-family="Times,serif" font-size="14.00">eax,0x1</text>
<text text-anchor="start" x="274" y="-253.2" font-family="Times,serif" font-size="14.00">MOV</text>
<text text-anchor="start" x="346" y="-253.2" font-family="Times,serif" font-size="14.00">edi,0x1</text>
<text text-anchor="start" x="274" y="-230.2" font-family="Times,serif" font-size="14.00">MOVABS</text>
<text text-anchor="start" x="345.88" y="-230.2" font-family="Times,serif" font-size="14.00">rsi,0x4000ec</text>
<text text-anchor="start" x="274" y="-207.2" font-family="Times,serif" font-size="14.00">MOV</text>
<text text-anchor="start" x="346" y="-207.2" font-family="Times,serif" font-size="14.00">edx,0x31</text>
<text text-anchor="start" x="273.62" y="-184.2" font-family="Times,serif" font-size="14.00">SYSCALL</text>
</g>
<!-- n1&#45;&gt;n3 -->
<g id="edge2" class="edge">
<title>n1&#45;&gt;n3</title>
<path fill="none" stroke="green" d="M329,-344.8C329,-344.8 329,-309.32 329,-309.32"/>
<polygon fill="green" stroke="green" points="332.5,-309.32 329,-299.32 325.5,-309.32 332.5,-309.32"/>
</g>
<!-- n4 -->
<g id="node5" class="node">
<title>n4</title>
<polygon fill="lightgray" stroke="black" points="304.5,-125 145.5,-125 145.5,0 304.5,0 304.5,-125"/>
<text text-anchor="start" x="157.5" y="-103.7" font-family="Times,serif" font-size="14.00">MOV</text>
<text text-anchor="start" x="229.5" y="-103.7" font-family="Times,serif" font-size="14.00">rsp,rbp</text>
<text text-anchor="start" x="157.5" y="-80.7" font-family="Times,serif" font-size="14.00">POP</text>
<text text-anchor="start" x="229.5" y="-80.7" font-family="Times,serif" font-size="14.00">rbp</text>
<text text-anchor="start" x="157.5" y="-57.7" font-family="Times,serif" font-size="14.00">MOV</text>
<text text-anchor="start" x="229.5" y="-57.7" font-family="Times,serif" font-size="14.00">eax,0x3c</text>
<text text-anchor="start" x="157.5" y="-34.7" font-family="Times,serif" font-size="14.00">MOV</text>
<text text-anchor="start" x="229.5" y="-34.7" font-family="Times,serif" font-size="14.00">edi,0x0</text>
<text text-anchor="start" x="157.12" y="-11.7" font-family="Times,serif" font-size="14.00">SYSCALL</text>
</g>
<!-- n2&#45;&gt;n4 -->
<g id="edge4" class="edge">
<title>n2&#45;&gt;n4</title>
<path fill="none" stroke="black" d="M167.75,-160.59C167.75,-160.59 167.75,-136.82 167.75,-136.82"/>
<polygon fill="black" stroke="black" points="171.25,-136.82 167.75,-126.82 164.25,-136.82 171.25,-136.82"/>
</g>
<!-- n3&#45;&gt;n4 -->
<g id="edge1" class="edge">
<title>n3&#45;&gt;n4</title>
<path fill="none" stroke="black" d="M283.25,-172.24C283.25,-172.24 283.25,-136.73 283.25,-136.73"/>
<polygon fill="black" stroke="black" points="286.75,-136.73 283.25,-126.73 279.75,-136.73 286.75,-136.73"/>
</g>
</g>
</svg>
