<?xml version="1.0" encoding="UTF-8" standalone="no"?>
<!DOCTYPE svg PUBLIC "-//W3C//DTD SVG 1.1//EN"
 "http://www.w3.org/Graphics/SVG/1.1/DTD/svg11.dtd">
<!-- Generated by graphviz version 9.0.0 (20230911.1827)
 -->
<!-- Title: G Pages: 1 -->
<svg width="296pt" height="228pt"
 viewBox="0.00 0.00 296.00 228.00" xmlns="http://www.w3.org/2000/svg" xmlns:xlink="http://www.w3.org/1999/xlink">
<g id="graph0" class="graph" transform="scale(1 1) rotate(0) translate(4 224)">
<title>G</title>
<polygon fill="white" stroke="none" points="-4,4 -4,-224 292,-224 292,4 -4,4"/>
<!-- n0 -->
<g id="node1" class="node">
<title>n0</title>
<polygon fill="lightgray" stroke="black" points="204.38,-220 83.62,-220 83.62,-184 204.38,-184 204.38,-220"/>
<text text-anchor="start" x="95.62" y="-197.32" font-family="Times,serif" font-size="14.00">MOV</text>
<text text-anchor="start" x="136.88" y="-197.32" font-family="Times,serif" font-size="14.00">eax,0x0</text>
</g>
<!-- n1 -->
<g id="node2" class="node">
<title>n1</title>
<polygon fill="lightgray" stroke="black" points="288,-148 0,-148 0,-92 288,-92 288,-148"/>
<text text-anchor="start" x="11.75" y="-126.7" font-family="Times,serif" font-size="14.00">CMP</text>
<text text-anchor="start" x="52" y="-126.7" font-family="Times,serif" font-size="14.00">BYTE</text>
<text text-anchor="start" x="128.88" y="-126.7" font-family="Times,serif" font-size="14.00">PTR</text>
<text text-anchor="start" x="163.75" y="-126.7" font-family="Times,serif" font-size="14.00">[rdi+rax*1],0x0</text>
<text text-anchor="start" x="12" y="-103.7" font-family="Times,serif" font-size="14.00">JE</text>
<text text-anchor="start" x="51.88" y="-103.7" font-family="Times,serif" font-size="14.00">0x400145</text>
</g>
<!-- n0&#45;&gt;n1 -->
<g id="edge3" class="edge">
<title>n0&#45;&gt;n1</title>
<path fill="none" stroke="black" d="M144,-183.8C144,-183.8 144,-159.97 144,-159.97"/>
<polygon fill="black" stroke="black" points="147.5,-159.97 144,-149.97 140.5,-159.97 147.5,-159.97"/>
</g>
<!-- n2 -->
<g id="node3" class="node">
<title>n2</title>
<polygon fill="lightgray" stroke="black" points="208.5,-56 79.5,-56 79.5,0 208.5,0 208.5,-56"/>
<text text-anchor="start" x="91.5" y="-34.7" font-family="Times,serif" font-size="14.00">INC</text>
<text text-anchor="start" x="126.5" y="-34.7" font-family="Times,serif" font-size="14.00">rax</text>
<text text-anchor="start" x="91.38" y="-11.7" font-family="Times,serif" font-size="14.00">JMP</text>
<text text-anchor="start" x="126.25" y="-11.7" font-family="Times,serif" font-size="14.00">0x40013a</text>
</g>
<!-- n1&#45;&gt;n2 -->
<g id="edge2" class="edge">
<title>n1&#45;&gt;n2</title>
<path fill="none" stroke="red" d="M122.5,-91.65C122.5,-91.65 122.5,-67.93 122.5,-67.93"/>
<polygon fill="red" stroke="red" points="126,-67.93 122.5,-57.93 119,-67.93 126,-67.93"/>
</g>
<!-- n3 -->
<g id="node4" class="node">
<title>n3</title>
<polygon fill="lightgray" stroke="black" points="277,-46 223,-46 223,-10 277,-10 277,-46"/>
<text text-anchor="start" x="235" y="-23.32" font-family="Times,serif" font-size="14.00">RET</text>
</g>
<!-- n1&#45;&gt;n3 -->
<g id="edge4" class="edge">
<title>n1&#45;&gt;n3</title>
<path fill="none" stroke="green" d="M250,-91.65C250,-91.65 250,-57.77 250,-57.77"/>
<polygon fill="green" stroke="green" points="253.5,-57.77 250,-47.77 246.5,-57.77 253.5,-57.77"/>
</g>
<!-- n2&#45;&gt;n1 -->
<g id="edge1" class="edge">
<title>n2&#45;&gt;n1</title>
<path fill="none" stroke="black" d="M165.5,-56.35C165.5,-56.35 165.5,-80.07 165.5,-80.07"/>
<polygon fill="black" stroke="black" points="162,-80.07 165.5,-90.07 169,-80.07 162,-80.07"/>
</g>
</g>
</svg>
