<?xml version="1.0" encoding="UTF-8" standalone="no"?>
<svg
   viewBox="0 0 384 512"
   version="1.1"
   id="svg1"
   sodipodi:docname="file.svg"
   width="384"
   height="512"
   inkscape:version="1.3.2 (091e20ef0f, 2023-11-25)"
   xmlns:inkscape="http://www.inkscape.org/namespaces/inkscape"
   xmlns:sodipodi="http://sodipodi.sourceforge.net/DTD/sodipodi-0.dtd"
   xmlns="http://www.w3.org/2000/svg"
   xmlns:svg="http://www.w3.org/2000/svg">
  <defs
     id="defs1" />
  <sodipodi:namedview
     id="namedview1"
     pagecolor="#ffffff"
     bordercolor="#000000"
     borderopacity="0.25"
     inkscape:showpageshadow="2"
     inkscape:pageopacity="0.0"
     inkscape:pagecheckerboard="0"
     inkscape:deskcolor="#d1d1d1"
     inkscape:zoom="1.6113281"
     inkscape:cx="192.07758"
     inkscape:cy="256"
     inkscape:window-width="1920"
     inkscape:window-height="1029"
     inkscape:window-x="0"
     inkscape:window-y="27"
     inkscape:window-maximized="1"
     inkscape:current-layer="svg1" />
  <path
     style="fill:#000000;stroke:none"
     d="M 0,64 C 0,28.7 28.7,0 64,0 h 165.5 c 17,0 33.3,6.7 45.3,18.7 l 90.5,90.5 c 12,12 18.7,28.3 18.7,45.3 V 448 c 0,35.3 -28.7,64 -64,64 H 64 C 28.7,512 0,483.3 0,448 Z"
     id="path2" />
  <path
     style="fill:#ffffff;stroke:none"
     d="m 320,464 c 8.8,0 16,-7.2 16,-16 V 160 h -80 c -17.7,0 -32,-14.3 -32,-32 V 48 H 64 c -8.8,0 -16,7.2 -16,16 v 384 c 0,8.8 7.2,16 16,16 z"
     id="path1" />
</svg>
